<?xml version="1.0" encoding="UTF-8" standalone="no"?>
<!-- Created with Inkscape (http://www.inkscape.org/) -->

<svg
   xmlns:dc="http://purl.org/dc/elements/1.1/"
   xmlns:cc="http://creativecommons.org/ns#"
   xmlns:rdf="http://www.w3.org/1999/02/22-rdf-syntax-ns#"
   xmlns:svg="http://www.w3.org/2000/svg"
   xmlns="http://www.w3.org/2000/svg"
   xmlns:sodipodi="http://sodipodi.sourceforge.net/DTD/sodipodi-0.dtd"
   xmlns:inkscape="http://www.inkscape.org/namespaces/inkscape"
   width="39.323818mm"
   height="51.392647mm"
   viewBox="0 0 39.323818 51.392647"
   version="1.1"
   id="svg8"
   inkscape:version="0.92.4 (f8dce91, 2019-08-02)"
   sodipodi:docname="palmar.svg">
  <defs
     id="defs2" />
  <sodipodi:namedview
     id="base"
     pagecolor="#ffffff"
     bordercolor="#666666"
     borderopacity="1.0"
     inkscape:pageopacity="0.0"
     inkscape:pageshadow="2"
     inkscape:zoom="0.24748737"
     inkscape:cx="897.26163"
     inkscape:cy="525.00487"
     inkscape:document-units="mm"
     inkscape:current-layer="layer1"
     showgrid="false"
     inkscape:window-width="1360"
     inkscape:window-height="719"
     inkscape:window-x="0"
     inkscape:window-y="0"
     inkscape:window-maximized="1" />
  <metadata
     id="metadata5">
    <rdf:RDF>
      <cc:Work
         rdf:about="">
        <dc:format>image/svg+xml</dc:format>
        <dc:type
           rdf:resource="http://purl.org/dc/dcmitype/StillImage" />
        <dc:title></dc:title>
      </cc:Work>
    </rdf:RDF>
  </metadata>
  <g
     inkscape:label="Layer 1"
     inkscape:groupmode="layer"
     id="layer1"
     transform="translate(-15.340797,-225.95306)">
    <g
       id="g3785"
       style="fill:#009d4b;fill-opacity:1"
       transform="matrix(0.27290492,0,0,0.27290492,11.154218,201.6567)">
      <path
         sodipodi:nodetypes="ccccc"
         inkscape:connector-curvature="0"
         id="rect3713"
         d="m 80.130956,97.34571 h 12.14881 l 6.047619,179.05251 h -25 z"
         style="fill:#009d4b;fill-opacity:1;stroke-width:0.38643497" />
      <path
         sodipodi:nodetypes="ccccc"
         inkscape:connector-curvature="0"
         id="rect3715"
         d="m 83.154766,267.84969 70.172614,-0.50398 v 10 H 73.327385 Z"
         style="fill:#009d4b;fill-opacity:1;stroke-width:0.18263628" />
      <g
         transform="rotate(1.8557911,3610.4726,63.368854)"
         id="g3777"
         style="fill:#009d4b;fill-opacity:1">
        <path
           style="fill:#009d4b;fill-opacity:1;stroke-width:0.25903627"
           d="m 162.19609,204.50147 c 0,0 -30.81878,0.42566 -53.79378,3.99452 -22.975,3.56887 -45.004401,12.44124 -63.156869,21.91332 -8.215473,4.28689 -25.693663,21.15175 -25.693663,21.15175 l 10.524267,7.64539 c 0,0 16.327173,-14.60215 26.515997,-19.3757 16.846937,-7.89292 34.685183,-16.00284 56.701958,-19.56186 22.01677,-3.55901 48.84301,-2.83036 48.84301,-2.83036 z"
           id="rect3739-6"
           inkscape:connector-curvature="0"
           sodipodi:nodetypes="cssccsscc" />
        <path
           style="fill:#009d4b;fill-opacity:1;stroke-width:0.25903627"
           d="m 19.551777,205.39155 c 0,0 30.81878,0.42566 53.793777,3.99452 22.975001,3.56887 45.004406,12.44124 63.156866,21.91332 8.21548,4.28689 25.69367,21.15175 25.69367,21.15175 l -10.52427,7.64539 c 0,0 -16.32717,-14.60215 -26.516,-19.3757 -16.84693,-7.89292 -34.685182,-16.00284 -56.701957,-19.56186 -22.016766,-3.55901 -48.843006,-2.83036 -48.843006,-2.83036 z"
           id="rect3739-6-7"
           inkscape:connector-curvature="0"
           sodipodi:nodetypes="cssccsscc" />
      </g>
    </g>
  </g>
</svg>
