<svg xmlns="http://www.w3.org/2000/svg" xmlns:svg="http://www.w3.org/2000/svg" id="svg8" width="148.625" height="194.24" version="1.1" viewBox="0 0 39.324 51.393"><metadata id="metadata5"/><g id="layer1" transform="translate(-15.340797,-225.95306)"><g id="g3785" transform="matrix(0.27290492,0,0,0.27290492,11.154218,201.6567)" style="fill:#009d4b;fill-opacity:1"><path id="rect3713" d="m 80.130956,97.34571 h 12.14881 l 6.047619,179.05251 h -25 z" style="fill:#009d4b;fill-opacity:1;stroke-width:.38643497"/><path id="rect3715" d="m 83.154766,267.84969 70.172614,-0.50398 v 10 H 73.327385 Z" style="fill:#009d4b;fill-opacity:1;stroke-width:.18263628"/><g id="g3777" transform="rotate(1.8557911,3610.4726,63.368854)" style="fill:#009d4b;fill-opacity:1"><path style="fill:#009d4b;fill-opacity:1;stroke-width:.25903627" id="rect3739-6" d="m 162.19609,204.50147 c 0,0 -30.81878,0.42566 -53.79378,3.99452 -22.975,3.56887 -45.004401,12.44124 -63.156869,21.91332 -8.215473,4.28689 -25.693663,21.15175 -25.693663,21.15175 l 10.524267,7.64539 c 0,0 16.327173,-14.60215 26.515997,-19.3757 16.846937,-7.89292 34.685183,-16.00284 56.701958,-19.56186 22.01677,-3.55901 48.84301,-2.83036 48.84301,-2.83036 z"/><path style="fill:#009d4b;fill-opacity:1;stroke-width:.25903627" id="rect3739-6-7" d="m 19.551777,205.39155 c 0,0 30.81878,0.42566 53.793777,3.99452 22.975001,3.56887 45.004406,12.44124 63.156866,21.91332 8.21548,4.28689 25.69367,21.15175 25.69367,21.15175 l -10.52427,7.64539 c 0,0 -16.32717,-14.60215 -26.516,-19.3757 -16.84693,-7.89292 -34.685182,-16.00284 -56.701957,-19.56186 -22.016766,-3.55901 -48.843006,-2.83036 -48.843006,-2.83036 z"/></g></g></g></svg>